<?xml version="1.0" encoding="utf-8"?>
<!-- Generator: Adobe Illustrator 27.0.1, SVG Export Plug-In . SVG Version: 6.00 Build 0)  -->
<svg version="1.0" id="Layer_1" xmlns="http://www.w3.org/2000/svg" xmlns:xlink="http://www.w3.org/1999/xlink" x="0px" y="0px"
	 viewBox="0 0 16326.6 14047.14" style="enable-background:new 0 0 16326.6 14047.14;" xml:space="preserve">
<style type="text/css">
	.st0{fill-rule:evenodd;clip-rule:evenodd;fill:#C49A6C;}
	.st1{fill-rule:evenodd;clip-rule:evenodd;fill:#F7941E;}
	.st2{fill:#FFFFFF;stroke:#FFFFFF;stroke-width:9.3127;stroke-miterlimit:10;}
	.st3{font-family:'Impact';}
	.st4{font-size:1278.0765px;}
	.st5{fill:#FFFFFF;stroke:#FFFFFF;stroke-width:4.8633;stroke-miterlimit:10;}
	.st6{font-size:638.1355px;}
</style>
<path class="st0" d="M12254.61,10809.06c93.99-904.9,1718.52-1918.71,2782.88-1855.35
	C15320.23,10759.87,12846.69,10989.09,12254.61,10809.06 M14245.5,7566.85c91.04-88.1,157.35-177.02,202.73-274.27
	c72.74-156,78.37-340.26,134.17-539.1c200.57-714.9,1616.03-227.6,1734.29,66.08c140.41,348.81-1248.41,74.23-1734.29,1030.51
	c696.73,12.98,1262.48,626.9,1262.48,1376.7c0,1228.75,0,2457.6,0,3686.26c0,154.09-90.75,287.05-218.25,339.45v284.43
	c0,280.11-214.13,510.23-475.98,510.23h-2191.97c-261.85,0-476.17-229.61-476.17-510.23v-159.41h-710.15h-1123.39L9130.9,10769.13
	h2318.91c146.18,0,267.63-128.84,267.63-286.95v-0.2c0-157.91-120.32-286.74-267.63-286.74H8796.97L7790.38,8465.71h4353.44
	l-796.87-678.39h2554.86l-28.34-104.5c-407.52-1499-860.18-2318.81-2470.86-2318.81H8500.71l-734.18-625.19h3636.06
	C13181.29,4738.82,13776.41,5841.14,14245.5,7566.85z"/>
<path class="st1" d="M5350.49,10809.06c-123.51-904.9-2258.04-1918.71-3656.65-1855.35
	C1322.29,10759.87,4572.5,10989.09,5350.49,10809.06 M10816.04,13377.5H5984.24h-933.19v159.41
	c0,279.81-281.55,510.23-625.62,510.23H1545.38c-344.07,0-625.65-229.61-625.65-510.23v-284.43
	c-167.47-52.4-286.79-185.16-286.79-339.45c0-1228.65,0-2457.51,0-3686.26c0-749.8,743.61-1363.73,1658.88-1376.7
	C1653.39,6893.78-171.49,7168.36,13.04,6819.56c155.35-293.68,2015.25-780.98,2278.79-66.08c73.31,198.84,80.71,383.1,176.23,539.1
	c59.69,97.25,146.82,186.17,266.44,274.27c616.43-1725.7,1398.42-2828.03,3735.7-2828.03h378.91l2264.58,2437.49H4018.97
	L10816.04,13377.5z"/>
<text transform="matrix(0.9243 0 0 1 8806.0361 6999.6235)" class="st2 st3 st4">CADRUPO</text>
<text transform="matrix(1.7383 0 0 1 5696.6489 8124.6011)" class="st5 st3 st6">AUTOMOBILE</text>
</svg>
