<?xml version="1.0" encoding="utf-8"?>
<!-- Generator: Adobe Illustrator 27.0.1, SVG Export Plug-In . SVG Version: 6.00 Build 0)  -->
<svg version="1.0" id="Layer_1" xmlns="http://www.w3.org/2000/svg" xmlns:xlink="http://www.w3.org/1999/xlink" x="0px" y="0px"
	 viewBox="0 0 1199.99 1199.99" style="enable-background:new 0 0 1199.99 1199.99;" xml:space="preserve">
<style type="text/css">
	.st0{fill-rule:evenodd;clip-rule:evenodd;fill:#FFE594;}
	.st1{fill-rule:evenodd;clip-rule:evenodd;fill:#FFFFFF;}
</style>
<path class="st0" d="M863.23,610.71c7.77-73.69,142.13-156.24,230.15-151.08C1116.76,606.71,912.19,625.37,863.23,610.71
	 M1027.88,346.7c7.53-7.17,13.01-14.41,16.77-22.33c6.02-12.7,6.48-27.71,11.1-43.9c16.59-58.21,133.65-18.53,143.43,5.38
	c11.61,28.4-103.25,6.04-143.43,83.92c57.62,1.06,104.41,51.05,104.41,112.11c0,100.06,0,200.12,0,300.17
	c0,12.55-7.51,23.37-18.05,27.64v23.16c0,22.81-17.71,41.55-39.37,41.55H921.45c-21.66,0-39.38-18.7-39.38-41.55v-12.98h-58.73
	h-92.91l-125.55-212.4h191.78c12.09,0,22.13-10.49,22.13-23.37v-0.02c0-12.86-9.95-23.35-22.13-23.35h-219.4l-83.25-140.84h360.04
	l-65.9-55.24h211.29l-2.34-8.51c-33.7-122.06-71.14-188.82-204.35-188.82H552.77l-60.72-50.91h300.71
	C939.86,116.41,989.08,206.17,1027.88,346.7z"/>
<path class="st1" d="M334.49,610.71c-7.57-73.69-138.36-156.24-224.06-151.08C87.67,606.71,286.82,625.37,334.49,610.71
	 M669.39,819.86H373.33h-57.18v12.98c0,22.78-17.25,41.55-38.33,41.55H101.34c-21.08,0-38.34-18.7-38.34-41.55v-23.16
	c-10.26-4.27-17.57-15.08-17.57-27.64c0-100.05,0-200.12,0-300.17c0-61.06,45.56-111.05,101.65-112.11
	C107.96,291.89-3.86,314.25,7.45,285.85c9.52-23.91,123.48-63.6,139.63-5.38c4.49,16.19,4.95,31.2,10.8,43.9
	c3.66,7.92,9,15.16,16.33,22.33c37.77-140.52,85.69-230.29,228.9-230.29h23.22L565.08,314.9H252.91L669.39,819.86z"/>
</svg>
